<?xml version="1.0" standalone="no"?>
<svg xmlns="http://www.w3.org/2000/svg" xmlns:xlink="http://www.w3.org/1999/xlink" height="1080px" width="1920px">
  <defs>
    <pattern id="doodad" width="200" height="200" viewBox="0 0 40 40" patternUnits="userSpaceOnUse" patternTransform="rotate(135)">
      <rect width="100%" height="100%" fill="rgba(15, 20, 25,1)"/>
      <path d="M20 9a 20 20 0 0 1 40 0h2a 2 2 0 0 1-4 0a 18 18 0 0 0-36 0a 2 2 0 0 1-4 0a 18 18 0 0 0-36 0h-2a 20 20 0 0 1 40 0z" fill="rgba(255, 143, 64,1)"/>
      <path d="M0 29a 20 20 0 0 1 40 0h2a 2 2 0 0 1-4 0a 18 18 0 0 0-36 0a 2 2 0 0 1-4 0z" fill="rgba(255, 180, 84,1)"/>
      <path d="M20 49a 20 20 0 0 1 40 0h2a 2 2 0 0 1-4 0a 18 18 0 0 0-36 0a 2 2 0 0 1-4 0a 18 18 0 0 0-36 0h-2a 20 20 0 0 1 40 0z" fill="rgba(255, 143, 64,1)"/>
    </pattern>
  </defs>
  <rect fill="url(#doodad)" height="200%" width="200%"/>
</svg>
