<svg xmlns="http://www.w3.org/2000/svg" width="25" height="13"><rect width="100%" height="100%" fill="#0f141a"/><path fill="none" stroke="#ffb452" d="M25.044 22.25c0 6.904-5.596 12.5-12.5 12.5s-12.5-5.596-12.5-12.5 5.596-12.5 12.5-12.5c5.786 0 10.655 3.932 12.079 9.27a12.6 12.6 0 0 1 .421 3.23m0-9a2.5 2.5 0 0 0-2.363 1.688 12.5 12.5 0 0 1 1.672 3.212v.002a2.5 2.5 0 1 0 .69-4.902zm-.037-5a7.5 7.5 0 0 0-6.125 3.227 12.5 12.5 0 0 1 6.121 11.773h.04a7.5 7.5 0 1 0-.036-15zm.023-5a12.5 12.5 0 0 0-10.998 6.588q.145.018.29.039h.005q.146.021.29.045h.003q.291.049.58.113h.004a13 13 0 0 1 1.123.3l.02.007.006.002a13 13 0 0 1 1.077.403l.032.01.033.016q.249.105.492.223l.016.008.004.002q.264.13.523.271l.006.002q.128.07.254.143l.004.002q.127.073.252.15l.004.002q.125.076.248.156l.004.002q.123.079.244.16l.004.002.24.168.004.002c.899.618 1.672 1.418 2.385 2.219l.004.004q.188.227.363.463l.004.004q.088.117.172.236l.004.004q.085.12.166.24l.002.004c.577.817.987 1.72 1.359 2.633l.002.004q.05.137.098.275l.002.004q.047.138.092.278l.002.003q.044.141.086.282l.002.004q.04.14.078.28l.002.005q.038.142.072.285l.002.004q.035.142.067.285c.136.57.19 1.141.25 1.713l.003.05.002.04q.02.267.028.535v.023q.004.146.004.293v.014a12.5 12.5 0 0 1-.127 1.777c-.184 1.281-.582 2.34-1.002 3.412a13 13 0 0 1-.36.723q.741.088 1.488.088c6.904 0 12.5-5.596 12.5-12.5s-5.596-12.5-12.5-12.5zm-24.986 10a2.5 2.5 0 1 0 .691 4.902 12.5 12.5 0 0 1 1.672-3.214A2.5 2.5 0 0 0 .044 13.25zm-.037-5a7.5 7.5 0 1 0 .078 15 12.5 12.5 0 0 1 6.121-11.773A7.5 7.5 0 0 0 .007 8.25zm-.065-5c-6.898.008-12.486 5.602-12.486 12.5 0 6.904 5.596 12.5 12.5 12.5q.789 0 1.57-.1a12.5 12.5 0 0 1 9.448-18.3A12.5 12.5 0 0 0-.044 3.25zm12.602 3.5a2.5 2.5 0 0 0-2.39 1.773q.451.638.82 1.327a12.5 12.5 0 0 1 3.058-.012 12.5 12.5 0 0 1 .875-1.399 2.5 2.5 0 0 0-2.363-1.689zm-1.57 3.1a12.5 12.5 0 0 1 3.058-.012M12.507 1.75a7.5 7.5 0 0 0-6.15 3.266 12.5 12.5 0 0 1 4.617 4.834 12.5 12.5 0 0 1 3.058-.012 12.5 12.5 0 0 1 4.676-4.861 7.5 7.5 0 0 0-6.201-3.227zm5.226 9.129zM10.974 9.85a12.5 12.5 0 0 1 3.058-.012m3.702 1.041h-.001zM12.53-3.25a12.5 12.5 0 0 0-11.004 6.6 12.5 12.5 0 0 1 9.448 6.5 12.5 12.5 0 0 1 3.058-.012 12.5 12.5 0 0 1 9.526-6.498 12.5 12.5 0 0 0-11.014-6.59zm5.203 14.129zM25.043.25a2.5 2.5 0 0 0-2.362 1.688q.485.671.877 1.4a13 13 0 0 1 1.472-.088h.014a12.5 12.5 0 0 1 2.389.23 2.5 2.5 0 0 0-2.39-3.23zm-.036-5a7.5 7.5 0 0 0-6.125 3.227 12.5 12.5 0 0 1 4.676 4.86 13 13 0 0 1 1.472-.087h.014c2.5 0 4.944.75 7.014 2.152A7.5 7.5 0 0 0 25.007-4.75zm-1.449 8.088a13 13 0 0 1 1.472-.088h.014m-.014-13a12.5 12.5 0 0 0-10.998 6.59 12.5 12.5 0 0 1 9.526 6.498 13 13 0 0 1 1.472-.088h.014a12.5 12.5 0 0 1 10.678 6 12.5 12.5 0 0 0 1.822-6.5c0-6.904-5.596-12.5-12.5-12.5zM14.69 8.75zm3.043 2.129zM.043.25a2.5 2.5 0 0 0-2.394 3.217A12.5 12.5 0 0 1-.058 3.25h.014q.789 0 1.57.1a12.5 12.5 0 0 1 .881-1.41A2.5 2.5 0 0 0 .044.25zm-.036-5A7.5 7.5 0 0 0-6.987 5.355 12.5 12.5 0 0 1-.057 3.25h.013q.789 0 1.57.1a12.5 12.5 0 0 1 4.682-4.873A7.5 7.5 0 0 0 .007-4.75zm.023-5c-6.898.008-12.486 5.602-12.486 12.5a12.5 12.5 0 0 0 1.78 6.428A12.5 12.5 0 0 1-.059 3.25h.014q.789 0 1.57.1a12.5 12.5 0 0 1 9.532-6.51A12.5 12.5 0 0 0 .044-9.75zM9.722 7.951z"/></svg>